# xmcd
#
# Track frame offsets: 
#        150
#        13280
#        30600
#        48415
#        63205
#        76442
#        90052
#        105252
#        125760
#        141335
#
# Disc length: 2133 seconds
#
# Revision: 5
# Processed by: cddbd v1.5.1PL0 Copyright (c) Steve Scherf et al.
# Submitted via: ExactAudioCopy v0.95a5
#
DISCID=7908530a
DTITLE=Suzy Bogguss - Aces
DYEAR=1991
DGENRE=Country
TTITLE0=Outbound Plane
TTITLE1=Aces
TTITLE2=Someday Soon
TTITLE3=Let Goodbye Hurt
TTITLE4=Save Yourself
TTITLE5=Yellow River Road
TTITLE6=Part Of Me
TTITLE7=Letting Go
TTITLE8=Music On The Wind
TTITLE9=Still Hold On
EXTD=
EXTT0=
EXTT1=
EXTT2=
EXTT3=
EXTT4=
EXTT5=
EXTT6=
EXTT7=
EXTT8=
EXTT9=
PLAYORDER=
